# xmcd
#
# Track frame offsets:
#	150
#	11517
#	22347
#	35770
#	51897
#	69485
#	87785
#	101690
#	118445
#	135335
#	152870
#	172385
#	189860
#	206697
#	223395
#	241247
#	259647
#
# Disc length: 3653 seconds
#
# Revision: 0
# Processed by: cddbd v1.4PL0 Copyright (c) Steve Scherf et al.
# Submitted via: audiograbber 1.80
#
DISCID=fd0e4311
DTITLE=Enrico Caruso - Complete Recordings Vol.5
DYEAR=1900
DGENRE=
TTITLE0=Pour un Baiser
TTITLE1=Recondita armonia
TTITLE2=E lucevan le stelle
TTITLE3=Mamma mia che vo'sape
TTITLE4=O tu che in seno agli angeli
TTITLE5=O terra addio
TTITLE6=Magiche note
TTITLE7=Le fleur que tu m'avais jetee
TTITLE8=Il fior che avevi a me tu dato
TTITLE9=Bianca al par di neve alpina
TTITLE10=La fatal pietra
TTITLE11=Miserere 1.Fassung
TTITLE12=Miserere 2.Fassung
TTITLE13=Eternelle
TTITLE14=Il se fait tard
TTITLE15=Mon coeur est penetre d'epouvante
TTITLE16=Attend!Voici la rue
EXTD=
EXTT0=
EXTT1=
EXTT2=
EXTT3=
EXTT4=
EXTT5=
EXTT6=
EXTT7=
EXTT8=
EXTT9=
EXTT10=
EXTT11=
EXTT12=
EXTT13=
EXTT14=
EXTT15=
EXTT16=
PLAYORDER=
